<?xml version="1.0" standalone="no"?>
<!DOCTYPE svg PUBLIC "-//W3C//DTD SVG 20010904//EN"
 "http://www.w3.org/TR/2001/REC-SVG-20010904/DTD/svg10.dtd">
<svg version="1.0" xmlns="http://www.w3.org/2000/svg"
 width="162.000000pt" height="162.000000pt" viewBox="0 0 162.000000 162.000000"
 preserveAspectRatio="xMidYMid meet">
<metadata>
Created by potrace 1.11, written by Peter Selinger 2001-2013
</metadata>
<g transform="translate(0.000000,162.000000) scale(0.100000,-0.100000)"
fill="#000000" stroke="none">
<path d="M310 1364 c-168 -45 -257 -177 -225 -335 25 -124 79 -157 384 -235
203 -51 268 -79 322 -136 74 -80 69 -208 -11 -289 -64 -65 -151 -99 -266 -104
-262 -12 -420 106 -428 320 -1 37 -22 53 -43 33 -33 -33 26 -220 90 -286 36
-37 130 -86 193 -100 63 -14 222 -14 284 -1 118 25 204 81 251 164 18 32 23
56 23 115 0 111 -11 141 -73 198 -50 47 -99 66 -310 124 -241 65 -279 80 -326
128 -21 22 -35 40 -31 40 5 0 4 6 -2 13 -18 22 -22 94 -7 144 17 58 68 113
132 143 60 28 72 31 162 34 142 7 250 -30 319 -109 40 -45 48 -66 58 -140 8
-59 11 -65 31 -58 27 10 31 22 22 57 -4 17 -13 51 -19 76 -24 92 -111 168
-230 200 -69 19 -236 21 -300 4z"/>
<path d="M1429 1365 c-74 -20 -142 -61 -192 -115 -25 -29 -44 -56 -42 -61 3
-4 0 -9 -5 -11 -6 -2 -17 -21 -25 -43 -8 -22 -15 -38 -15 -35 -1 3 -2 61 -3
130 -2 118 -3 125 -22 125 -20 0 -20 -7 -20 -554 0 -458 2 -554 13 -559 8 -3
18 1 23 9 5 8 9 163 9 344 0 346 2 375 25 458 43 156 213 288 364 283 22 -1
42 2 43 6 5 30 1 33 -53 33 -30 1 -75 -4 -100 -10z"/>
</g>
</svg>
